<svg width="472" height="68" viewBox="0 0 472 68" fill="none" xmlns="http://www.w3.org/2000/svg">
<path d="M39.62 15.768H15.24V28.188H39.16V42.356H15.24V66H0.52002V1.60001H39.62V15.768Z" fill="#009EF7"/>
<path d="M86.8649 61.308C82.2036 65.2947 76.2542 67.288 69.0169 67.288C61.7796 67.288 55.8302 65.2947 51.1689 61.308C46.5076 57.3213 44.1769 51.9547 44.1769 45.208V1.60001H58.8969V43.92C58.8969 49.9307 62.2702 52.936 69.0169 52.936C75.7636 52.936 79.1369 49.9307 79.1369 43.92V1.60001H93.8569V45.208C93.8569 51.9547 91.5262 57.3213 86.8649 61.308Z" fill="#009EF7"/>
<path d="M123.333 67.288C116.77 67.288 111.281 65.8773 106.865 63.056C102.51 60.1733 99.4128 56.2787 97.5728 51.372L110.269 44.012C112.845 49.9613 117.353 52.936 123.793 52.936C129.619 52.936 132.533 51.188 132.533 47.692C132.533 45.7907 131.582 44.3187 129.681 43.276C127.841 42.172 124.345 40.9147 119.193 39.504C116.494 38.768 114.133 37.94 112.109 37.02C110.085 36.1 108.091 34.904 106.129 33.432C104.227 31.8987 102.755 29.9973 101.713 27.728C100.731 25.4587 100.241 22.852 100.241 19.908C100.241 13.9587 102.357 9.20535 106.589 5.64801C110.882 2.09068 115.973 0.312012 121.861 0.312012C127.136 0.312012 131.797 1.56935 135.845 4.08401C139.893 6.53735 143.082 10.1253 145.413 14.848L132.993 22.116C131.827 19.6627 130.386 17.8227 128.669 16.596C126.952 15.308 124.682 14.664 121.861 14.664C119.653 14.664 117.935 15.1547 116.709 16.136C115.543 17.056 114.961 18.1907 114.961 19.54C114.961 21.1347 115.697 22.5147 117.169 23.68C118.702 24.8453 121.83 26.1333 126.553 27.544C129.129 28.3413 131.122 28.9853 132.533 29.476C133.944 29.9667 135.722 30.7947 137.869 31.96C140.077 33.064 141.733 34.26 142.837 35.548C144.002 36.7747 145.014 38.4307 145.873 40.516C146.793 42.54 147.253 44.8707 147.253 47.508C147.253 53.6413 145.045 58.4867 140.629 62.044C136.213 65.54 130.448 67.288 123.333 67.288Z" fill="#009EF7"/>
<path d="M150.48 1.60001H165.2V66H150.48V1.60001Z" fill="#009EF7"/>
<path d="M227.049 57.628C220.548 64.068 212.636 67.288 203.313 67.288C193.991 67.288 186.079 64.068 179.577 57.628C173.076 51.188 169.825 43.2453 169.825 33.8C169.825 24.3547 173.076 16.412 179.577 9.97201C186.079 3.53201 193.991 0.312012 203.313 0.312012C212.636 0.312012 220.548 3.53201 227.049 9.97201C233.551 16.412 236.801 24.3547 236.801 33.8C236.801 43.2453 233.551 51.188 227.049 57.628ZM189.881 47.6C193.5 51.1574 197.977 52.936 203.313 52.936C208.649 52.936 213.096 51.1574 216.653 47.6C220.272 44.0427 222.081 39.4427 222.081 33.8C222.081 28.1573 220.272 23.5573 216.653 20C213.096 16.4427 208.649 14.664 203.313 14.664C197.977 14.664 193.5 16.4427 189.881 20C186.324 23.5573 184.545 28.1573 184.545 33.8C184.545 39.4427 186.324 44.0427 189.881 47.6Z" fill="#009EF7"/>
<path d="M277.289 1.60001H292.009V66H280.969L256.129 31.04V66H241.409V1.60001H252.449L277.289 36.56V1.60001Z" fill="#009EF7"/>
<path d="M332.562 1.60001C338.879 1.60001 344.215 3.74668 348.57 8.04001C352.925 12.3333 355.102 17.5467 355.102 23.68C355.102 29.8133 352.925 35.0267 348.57 39.32C344.215 43.6133 338.879 45.76 332.562 45.76H322.902V66H308.182V1.60001H332.562ZM332.562 31.96C334.831 31.96 336.702 31.1627 338.174 29.568C339.646 27.9733 340.382 26.0107 340.382 23.68C340.382 21.3493 339.646 19.3867 338.174 17.792C336.702 16.1973 334.831 15.4 332.562 15.4H322.902V31.96H332.562Z" fill="white"/>
<path d="M412.782 57.628C406.281 64.068 398.369 67.288 389.046 67.288C379.724 67.288 371.812 64.068 365.31 57.628C358.809 51.188 355.558 43.2453 355.558 33.8C355.558 24.3547 358.809 16.412 365.31 9.97201C371.812 3.53201 379.724 0.312012 389.046 0.312012C398.369 0.312012 406.281 3.53201 412.782 9.97201C419.284 16.412 422.534 24.3547 422.534 33.8C422.534 43.2453 419.284 51.188 412.782 57.628ZM375.614 47.6C379.233 51.1574 383.71 52.936 389.046 52.936C394.382 52.936 398.829 51.1574 402.386 47.6C406.005 44.0427 407.814 39.4427 407.814 33.8C407.814 28.1573 406.005 23.5573 402.386 20C398.829 16.4427 394.382 14.664 389.046 14.664C383.71 14.664 379.233 16.4427 375.614 20C372.057 23.5573 370.278 28.1573 370.278 33.8C370.278 39.4427 372.057 44.0427 375.614 47.6Z" fill="white"/>
<path d="M447.346 67.288C440.784 67.288 435.294 65.8773 430.878 63.056C426.524 60.1733 423.426 56.2787 421.586 51.372L434.282 44.012C436.858 49.9613 441.366 52.936 447.806 52.936C453.633 52.936 456.546 51.188 456.546 47.692C456.546 45.7907 455.596 44.3187 453.694 43.276C451.854 42.172 448.358 40.9147 443.206 39.504C440.508 38.768 438.146 37.94 436.122 37.02C434.098 36.1 432.105 34.904 430.142 33.432C428.241 31.8987 426.769 29.9973 425.726 27.728C424.745 25.4587 424.254 22.852 424.254 19.908C424.254 13.9587 426.37 9.20535 430.602 5.64801C434.896 2.09068 439.986 0.312012 445.874 0.312012C451.149 0.312012 455.81 1.56935 459.858 4.08401C463.906 6.53735 467.096 10.1253 469.426 14.848L457.006 22.116C455.841 19.6627 454.4 17.8227 452.682 16.596C450.965 15.308 448.696 14.664 445.874 14.664C443.666 14.664 441.949 15.1547 440.722 16.136C439.557 17.056 438.974 18.1907 438.974 19.54C438.974 21.1347 439.71 22.5147 441.182 23.68C442.716 24.8453 445.844 26.1333 450.566 27.544C453.142 28.3413 455.136 28.9853 456.546 29.476C457.957 29.9667 459.736 30.7947 461.882 31.96C464.09 33.064 465.746 34.26 466.85 35.548C468.016 36.7747 469.028 38.4307 469.886 40.516C470.806 42.54 471.266 44.8707 471.266 47.508C471.266 53.6413 469.058 58.4867 464.642 62.044C460.226 65.54 454.461 67.288 447.346 67.288Z" fill="white"/>
</svg>
